<svg width="159" height="124" viewBox="0 0 159 124" fill="none" xmlns="http://www.w3.org/2000/svg">
<path d="M114.59 55.3211V80.4877L159 54.847V123.625L114.59 97.984V122.332L58.786 122.567L58.6512 122.332H10.4035V55.3211H20.6887C8.76378 52.0445 0 41.1319 0 28.1663C0 12.6105 12.6105 1.52588e-05 28.1663 1.52588e-05C43.7229 1.52588e-05 56.3326 12.6105 56.3326 28.1663C56.3326 41.1319 47.5688 52.0445 35.6439 55.3211H86.1387C74.2137 52.0445 65.45 41.1319 65.45 28.1663C65.45 12.6105 78.0605 1.52588e-05 93.6163 1.52588e-05C109.173 1.52588e-05 121.783 12.6105 121.783 28.1663C121.783 41.1319 113.02 52.0445 101.095 55.3211H114.59Z" fill="#E1E1E1"/>
</svg>
