<svg width="182" height="170" viewBox="0 0 182 170" fill="none" xmlns="http://www.w3.org/2000/svg">
<path d="M9.13072 169.754H172.271C173.848 169.745 175.396 169.329 176.764 168.545C178.132 167.762 179.275 166.637 180.08 165.281C180.885 163.925 181.326 162.384 181.359 160.808C181.393 159.231 181.018 157.673 180.271 156.284L98.7407 4.80383C97.9593 3.35166 96.7993 2.13824 95.3837 1.29242C93.968 0.446597 92.3498 0 90.7007 0C89.0517 0 87.4334 0.446597 86.0178 1.29242C84.6022 2.13824 83.4421 3.35166 82.6608 4.80383L1.09074 156.284C0.342073 157.676 -0.0329574 159.238 0.00227177 160.818C0.037501 162.398 0.481771 163.941 1.29173 165.298C2.10169 166.655 3.24967 167.779 4.62358 168.56C5.99749 169.341 7.55039 169.752 9.13072 169.754V169.754ZM101.081 142.074H80.3207V121.324H101.081V142.074ZM101.081 107.484H80.3207V65.9739H101.081V107.484Z" fill="#464353"/>
</svg>
