<svg width="157" height="172" viewBox="0 0 157 172" fill="none" xmlns="http://www.w3.org/2000/svg">
<path d="M149.15 0H39.25C37.1681 0 35.1714 1.1278 33.6992 3.13529C32.2271 5.14278 31.4 7.86552 31.4 10.7045V42.8182H70.65V21.4091H117.75V128.455H149.15C151.232 128.455 153.229 127.327 154.701 125.319C156.173 123.312 157 120.589 157 117.75V10.7045C157 7.86552 156.173 5.14278 154.701 3.13529C153.229 1.1278 151.232 0 149.15 0V0ZM56.9125 34.4553C56.9125 35.2537 56.6799 36.0195 56.2658 36.5841C55.8518 37.1487 55.2902 37.4659 54.7047 37.4659H47.3453C46.7598 37.4659 46.1982 37.1487 45.7842 36.5841C45.3701 36.0195 45.1375 35.2537 45.1375 34.4553V24.4197C45.1375 23.6213 45.3701 22.8555 45.7842 22.2909C46.1982 21.7263 46.7598 21.4091 47.3453 21.4091H54.7047C55.2902 21.4091 55.8518 21.7263 56.2658 22.2909C56.6799 22.8555 56.9125 23.6213 56.9125 24.4197V34.4553ZM143.262 104.035C143.262 104.833 143.03 105.599 142.616 106.164C142.202 106.728 141.64 107.045 141.055 107.045H133.695C133.11 107.045 132.548 106.728 132.134 106.164C131.72 105.599 131.487 104.833 131.487 104.035V93.9993C131.487 93.2008 131.72 92.4351 132.134 91.8704C132.548 91.3058 133.11 90.9886 133.695 90.9886H141.055C141.64 90.9886 142.202 91.3058 142.616 91.8704C143.03 92.4351 143.262 93.2008 143.262 93.9993V104.035ZM143.262 69.245C143.262 70.0435 143.03 70.8093 142.616 71.3739C142.202 71.9385 141.64 72.2557 141.055 72.2557H133.695C133.11 72.2557 132.548 71.9385 132.134 71.3739C131.72 70.8093 131.487 70.0435 131.487 69.245V59.2095C131.487 58.411 131.72 57.6453 132.134 57.0807C132.548 56.5161 133.11 56.1989 133.695 56.1989H141.055C141.64 56.1989 142.202 56.5161 142.616 57.0807C143.03 57.6453 143.262 58.411 143.262 59.2095V69.245ZM143.262 34.4553C143.262 35.2537 143.03 36.0195 142.616 36.5841C142.202 37.1487 141.64 37.4659 141.055 37.4659H133.695C133.11 37.4659 132.548 37.1487 132.134 36.5841C131.72 36.0195 131.487 35.2537 131.487 34.4553V24.4197C131.487 23.6213 131.72 22.8555 132.134 22.2909C132.548 21.7263 133.11 21.4091 133.695 21.4091H141.055C141.64 21.4091 142.202 21.7263 142.616 22.2909C143.03 22.8555 143.262 23.6213 143.262 24.4197V34.4553ZM102.05 53.5227H7.85C5.76805 53.5227 3.77137 54.6505 2.29921 56.658C0.827051 58.6655 0 61.3883 0 64.2273L0 160.568C0 163.407 0.827051 166.13 2.29921 168.137C3.77137 170.145 5.76805 171.273 7.85 171.273H102.05C104.132 171.273 106.129 170.145 107.601 168.137C109.073 166.13 109.9 163.407 109.9 160.568V64.2273C109.9 61.3883 109.073 58.6655 107.601 56.658C106.129 54.6505 104.132 53.5227 102.05 53.5227ZM23.55 74.9318C25.1026 74.9318 26.6203 75.5596 27.9112 76.7359C29.2022 77.9121 30.2083 79.5839 30.8025 81.5399C31.3966 83.4959 31.5521 85.6482 31.2492 87.7247C30.9463 89.8012 30.1986 91.7086 29.1008 93.2056C28.0029 94.7027 26.6042 95.7222 25.0815 96.1352C23.5587 96.5483 21.9803 96.3363 20.5459 95.5261C19.1115 94.7159 17.8855 93.3439 17.023 91.5835C16.1604 89.8231 15.7 87.7535 15.7 85.6364C15.7 82.7973 16.5271 80.0746 17.9992 78.0671C19.4714 76.0596 21.4681 74.9318 23.55 74.9318V74.9318ZM94.2 149.864H15.7V139.159L31.4 117.75L39.25 128.455L70.65 85.6364L94.2 117.75V149.864Z" fill="#E1E1E1"/>
</svg>
