<svg width="272" height="272" viewBox="0 0 272 272" fill="none" xmlns="http://www.w3.org/2000/svg">
<g clip-path="url(#clip0)">
<path d="M135.787 21.3333C72.6773 21.3333 21.3333 72.6773 21.3333 135.787C21.3333 198.896 72.6773 250.24 135.787 250.24C198.897 250.24 250.24 198.896 250.24 135.787C250.24 72.6773 198.897 21.3333 135.787 21.3333ZM135.787 271.573C60.9133 271.573 0 210.66 0 135.787C0 60.9133 60.9133 0 135.787 0C210.66 0 271.573 60.9133 271.573 135.787C271.573 210.66 210.66 271.573 135.787 271.573Z" fill="#CCCCCC"/>
<path d="M89.8511 135.786V64.8117C89.8511 61.3851 93.0564 59.1556 95.7818 60.689L159.575 96.569L221.969 131.664C224.99 133.362 224.99 138.21 221.969 139.909L159.575 175.004L95.7818 210.884C93.0564 212.417 89.8511 210.188 89.8511 206.761V135.786Z" fill="#CCCCCC"/>
</g>
<defs>
<clipPath id="clip0">
<rect width="272" height="272" fill="white"/>
</clipPath>
</defs>
</svg>
