<svg width="272" height="272" viewBox="0 0 272 272" fill="none" xmlns="http://www.w3.org/2000/svg">
<path d="M135.787 21.3333C72.6773 21.3333 21.3333 72.6773 21.3333 135.787C21.3333 198.896 72.6773 250.24 135.787 250.24C198.897 250.24 250.24 198.896 250.24 135.787C250.24 72.6773 198.897 21.3333 135.787 21.3333ZM135.787 271.573C60.9133 271.573 0 210.66 0 135.787C0 60.9133 60.9133 -4.15802e-06 135.787 -4.15802e-06C210.66 -4.15802e-06 271.573 60.9133 271.573 135.787C271.573 210.66 210.66 271.573 135.787 271.573Z" fill="#444443"/>
<path d="M89.8512 135.786V64.8117C89.8512 61.3851 93.0565 59.1557 95.7819 60.6891L159.575 96.5691L221.969 131.664C224.99 133.362 224.99 138.21 221.969 139.909L159.575 175.004L95.7819 210.884C93.0565 212.417 89.8512 210.188 89.8512 206.761V135.786Z" fill="#444443"/>
</svg>
