<svg width="272" height="272" viewBox="0 0 272 272" fill="none" xmlns="http://www.w3.org/2000/svg">
<path d="M135.787 21.3333C72.6773 21.3333 21.3333 72.6773 21.3333 135.787C21.3333 198.896 72.6773 250.24 135.787 250.24C198.896 250.24 250.24 198.896 250.24 135.787C250.24 72.6773 198.896 21.3333 135.787 21.3333ZM135.787 271.573C60.9133 271.573 0 210.66 0 135.787C0 60.9133 60.9133 -4.15802e-06 135.787 -4.15802e-06C210.659 -4.15802e-06 271.573 60.9133 271.573 135.787C271.573 210.66 210.659 271.573 135.787 271.573Z" fill="#444443"/>
<path d="M123.832 205.181H83.1389C80.5429 205.181 78.4389 203.076 78.4389 200.481V71.0929C78.4389 68.4969 80.5429 66.3916 83.1389 66.3916H123.832C126.428 66.3916 128.532 68.4969 128.532 71.0929V200.481C128.532 203.076 126.428 205.181 123.832 205.181Z" fill="#444443"/>
<path d="M188.434 205.181H147.74C145.144 205.181 143.04 203.076 143.04 200.481V71.0929C143.04 68.4969 145.144 66.3916 147.74 66.3916H188.434C191.03 66.3916 193.135 68.4969 193.135 71.0929V200.481C193.135 203.076 191.03 205.181 188.434 205.181Z" fill="#444443"/>
</svg>
